<?xml version="1.0" encoding="UTF-8" standalone="no"?>
<svg
   xmlns:dc="http://purl.org/dc/elements/1.1/"
   xmlns:cc="http://creativecommons.org/ns#"
   xmlns:rdf="http://www.w3.org/1999/02/22-rdf-syntax-ns#"
   xmlns:svg="http://www.w3.org/2000/svg"
   xmlns="http://www.w3.org/2000/svg"
   xmlns:sodipodi="http://sodipodi.sourceforge.net/DTD/sodipodi-0.dtd"
   xmlns:inkscape="http://www.inkscape.org/namespaces/inkscape"
   width="24"
   height="24"
   viewBox="-3 0 24 24"
   preserveAspectRatio="xMinYMid meet"
   overflow="visible"
   version="1.1"
   id="svg935"
   sodipodi:docname="icon.svg"
   inkscape:version="1.0.2 (e86c870879, 2021-01-15, custom)">
  <metadata
     id="metadata941">
    <rdf:RDF>
      <cc:Work
         rdf:about="">
        <dc:format>image/svg+xml</dc:format>
        <dc:type
           rdf:resource="http://purl.org/dc/dcmitype/StillImage" />
        <dc:title></dc:title>
      </cc:Work>
    </rdf:RDF>
  </metadata>
  <defs
     id="defs939" />
  <sodipodi:namedview
     pagecolor="#ffffff"
     bordercolor="#666666"
     borderopacity="1"
     objecttolerance="10"
     gridtolerance="10"
     guidetolerance="10"
     inkscape:pageopacity="0"
     inkscape:pageshadow="2"
     inkscape:window-width="1920"
     inkscape:window-height="1017"
     id="namedview937"
     showgrid="false"
     inkscape:zoom="12.182861"
     inkscape:cx="9.9163979"
     inkscape:cy="11.877706"
     inkscape:window-x="1912"
     inkscape:window-y="-8"
     inkscape:window-maximized="1"
     inkscape:current-layer="svg935" />
  <linearGradient
     id="a"
     gradientUnits="userSpaceOnUse"
     x1="9.499"
     x2="9.499"
     y2="24">
    <stop
       offset="0"
       stop-color="#95BFF8"
       id="stop888" />
    <stop
       offset=".557"
       stop-color="#84ADEF"
       id="stop890" />
    <stop
       offset="1"
       stop-color="#7CA4EB"
       id="stop892" />
  </linearGradient>
  <linearGradient
     id="b"
     gradientUnits="userSpaceOnUse"
     x1="9.499"
     y1="1"
     x2="9.499"
     y2="23">
    <stop
       offset="0"
       stop-color="#E7F4FC"
       id="stop897" />
    <stop
       offset="1"
       stop-color="#DEEFFC"
       id="stop899" />
  </linearGradient>
  <linearGradient
     id="c"
     gradientUnits="userSpaceOnUse"
     x1="9.499"
     y1="2"
     x2="9.499"
     y2="22">
    <stop
       offset="0"
       stop-color="#CEE9F9"
       id="stop904" />
    <stop
       offset="1"
       stop-color="#BBDFF8"
       id="stop906" />
  </linearGradient>
  <linearGradient
     id="d"
     gradientUnits="userSpaceOnUse"
     x1="14.245"
     x2="14.245"
     y2="9.359">
    <stop
       offset="0"
       stop-color="#95BFF8"
       id="stop911" />
    <stop
       offset=".557"
       stop-color="#84ADEF"
       id="stop913" />
    <stop
       offset="1"
       stop-color="#7CA4EB"
       id="stop915" />
  </linearGradient>
  <linearGradient
     id="e"
     gradientUnits="userSpaceOnUse"
     x1="11.322"
     y1="7.545"
     x2="14.45"
     y2="4.417">
    <stop
       offset="0"
       stop-color="#E7F4FC"
       id="stop920" />
    <stop
       offset=".518"
       stop-color="#E5F3FC"
       id="stop922" />
    <stop
       offset=".705"
       stop-color="#DEF0FB"
       id="stop924" />
    <stop
       offset=".837"
       stop-color="#D3EBFA"
       id="stop926" />
    <stop
       offset=".872"
       stop-color="#CEE9F9"
       id="stop928" />
    <stop
       offset="1"
       stop-color="#BDD8F0"
       id="stop930" />
  </linearGradient>
  <path
     fill="currentColor"
     d="M 10.94441,6.4532865 V 0.08040548 H 1.5725314 c -0.62322549,0 -1.12462399,0.50139845 -1.12462399,1.12462372 V 22.947792 c 0,0.623231 0.5013985,1.124624 1.12462399,1.124624 H 17.317291 c 0.623231,0 1.124624,-0.501393 1.124624,-1.124624 V 7.5779102 h -6.372876 c -0.618548,0 -1.124629,-0.5060807 -1.124629,-1.1246237 z M 7.9454124,19.011604 c 0,0.501393 -0.604486,0.749745 -0.960618,0.3983 l -1.663508,-1.710363 h -1.312063 c -0.309272,0 -0.562312,-0.253041 -0.562312,-0.562318 v -2.624125 c 0,-0.309272 0.25304,-0.562312 0.562312,-0.562312 h 1.312063 l 1.663508,-1.710369 c 0.356132,-0.356127 0.960618,-0.103087 0.960618,0.398306 z m 1.555733,-2.230508 c 0.426416,-0.435792 0.426416,-1.129311 0,-1.565103 -1.035595,-1.068398 0.5716816,-2.633501 1.6119586,-1.569791 1.274577,1.307375 1.274577,3.392617 0,4.70468 -1.021532,1.044964 -2.6662996,-0.487335 -1.6119586,-1.569786 z M 13.53105,11.293857 c 2.549149,2.619443 2.549149,6.785244 0,9.40937 -1.021537,1.049647 -2.670987,-0.482653 -1.611964,-1.569791 1.696311,-1.743172 1.700999,-4.521934 0,-6.269788 -1.035589,-1.068393 0.576369,-2.638184 1.611964,-1.569791 z M 18.441915,5.7925645 V 6.0784082 H 12.443912 V 0.08040548 h 0.285844 c 0.299901,0 0.585739,0.11715016 0.796606,0.32801711 l 4.587535,4.59221721 c 0.210867,0.2108672 0.328018,0.4967109 0.328018,0.7919247 z"
     id="path974"
     style="fill:#d5045c;fill-opacity:1;stroke-width:0.0468594" />
</svg>
